<?xml version="1.0" standalone="no"?>
<!DOCTYPE svg PUBLIC "-//W3C//DTD SVG 20010904//EN"
 "http://www.w3.org/TR/2001/REC-SVG-20010904/DTD/svg10.dtd">
<svg version="1.0" xmlns="http://www.w3.org/2000/svg"
 width="174.000000pt" height="174.000000pt" viewBox="0 0 174.000000 174.000000"
 preserveAspectRatio="xMidYMid meet">
<metadata>
Created by potrace 1.11, written by Peter Selinger 2001-2013
</metadata>
<g transform="translate(0.000000,174.000000) scale(0.100000,-0.100000)"
fill="#000000" stroke="none">
<path d="M545 1494 c-176 -101 -328 -191 -337 -199 -17 -14 -18 -46 -18 -413
0 -367 1 -400 18 -415 37 -33 658 -397 678 -397 27 0 654 373 673 400 31 45
15 59 -279 235 -155 93 -277 171 -273 175 4 4 118 73 253 155 135 81 260 159
278 172 37 28 42 61 13 87 -37 33 -646 386 -666 385 -11 0 -164 -83 -340 -185z
m637 -111 c132 -78 213 -130 205 -135 -7 -4 -122 -74 -256 -156 l-244 -150
-254 153 c-140 84 -254 157 -254 161 0 5 114 75 253 155 l253 146 40 -23 c22
-13 138 -81 257 -151z m-637 -373 c121 -73 221 -133 222 -134 4 -3 -455 -266
-463 -266 -4 0 -4 78 -1 173 4 94 7 216 7 270 0 54 3 96 8 94 4 -3 106 -64
227 -137z m285 -511 c0 -148 -3 -268 -7 -266 -123 67 -452 272 -446 278 11 11
436 258 446 258 4 1 7 -121 7 -270z m344 136 c119 -71 216 -133 216 -136 0 -6
-435 -269 -444 -269 -2 0 -4 122 -4 271 -1 148 3 269 7 267 5 -2 106 -61 225
-133z"/>
</g>
</svg>
